<?xml version="1.0" encoding="UTF-8"?>
<svg xmlns="http://www.w3.org/2000/svg" xmlns:xlink="http://www.w3.org/1999/xlink" width="1328" height="720" viewBox="0 0 1328 720">
<path fill-rule="nonzero" fill="rgb(13.729858%, 12.159729%, 12.548828%)" fill-opacity="1" d="M 747.386719 308.699219 L 747.386719 312.65625 L 724.871094 312.65625 L 724.871094 276.675781 L 729.238281 276.730469 L 729.238281 308.699219 Z M 747.386719 308.699219 "/>
<path fill-rule="nonzero" fill="rgb(13.729858%, 12.159729%, 12.548828%)" fill-opacity="1" d="M 769.65625 303.867188 L 769.65625 300.730469 C 765.546875 302.839844 757.578125 300.886719 757.578125 305.921875 C 757.578125 308.957031 760.253906 309.316406 762.152344 309.316406 C 768.011719 309.316406 769.65625 305.921875 769.65625 303.867188 M 777.574219 308.851562 L 777.574219 312.65625 L 771.253906 312.65625 L 769.707031 309.675781 C 768.113281 311.988281 765.441406 313.171875 762 313.171875 C 756.808594 313.171875 753.3125 310.550781 753.3125 305.769531 C 753.3125 295.488281 769.65625 302.015625 769.65625 296.515625 L 769.65625 296.363281 C 769.65625 294.101562 768.113281 291.839844 764.363281 291.839844 C 761.023438 291.839844 759.121094 293.640625 758.09375 296.414062 L 754.496094 294.5625 C 756.550781 289.578125 760.609375 287.984375 764.464844 287.984375 C 770.121094 287.984375 773.925781 291.375 773.925781 296.570312 L 773.925781 308.851562 Z M 777.574219 308.851562 "/>
<path fill-rule="nonzero" fill="rgb(13.729858%, 12.159729%, 12.548828%)" fill-opacity="1" d="M 803.308594 300.578125 C 803.308594 295.230469 800.691406 291.839844 796.167969 291.839844 C 791.644531 291.839844 788.355469 295.179688 788.355469 300.320312 C 788.355469 305.972656 791.644531 309.316406 796.167969 309.316406 C 800.691406 309.316406 803.308594 305.925781 803.308594 300.578125 M 807.578125 300.578125 C 807.578125 306.335938 804.441406 313.171875 796.527344 313.171875 C 793.03125 313.171875 790.613281 311.832031 789.023438 309.828125 L 787.277344 312.65625 L 784.652344 312.65625 L 784.652344 276.675781 L 788.917969 276.675781 L 788.761719 291.582031 C 790.359375 289.476562 792.824219 287.984375 796.527344 287.984375 C 804.441406 287.984375 807.578125 294.871094 807.578125 300.578125 "/>
<path fill-rule="nonzero" fill="rgb(13.729858%, 12.159729%, 12.548828%)" fill-opacity="1" d="M 833.871094 300.320312 C 833.871094 295.179688 831.300781 291.839844 826.675781 291.839844 C 822.050781 291.839844 819.476562 295.179688 819.476562 300.320312 C 819.476562 305.972656 822.050781 309.316406 826.675781 309.316406 C 831.300781 309.316406 833.871094 305.972656 833.871094 300.320312 M 815.210938 300.320312 C 815.210938 294.410156 818.550781 287.984375 826.675781 287.984375 C 834.796875 287.984375 838.136719 294.410156 838.136719 300.320312 C 838.136719 306.746094 834.796875 313.171875 826.675781 313.171875 C 818.550781 313.171875 815.210938 306.746094 815.210938 300.320312 "/>
<path fill-rule="nonzero" fill="rgb(13.729858%, 12.159729%, 12.548828%)" fill-opacity="1" d="M 868.75 294.5625 L 865.101562 296.261719 C 863.867188 293.125 862.789062 291.839844 860.0625 291.839844 C 854.359375 291.839844 853.433594 297.546875 853.433594 301.761719 L 853.433594 308.800781 L 858.421875 308.800781 L 858.421875 312.65625 L 844.59375 312.65625 L 844.59375 308.800781 L 849.167969 308.800781 L 849.167969 292.355469 L 845.105469 292.355469 L 845.105469 288.5 L 851.789062 288.5 L 853.792969 291.683594 C 855.230469 289.527344 857.339844 287.984375 860.476562 287.984375 C 863.96875 287.984375 867.003906 289.835938 868.75 294.5625 "/>
<path fill-rule="nonzero" fill="rgb(13.729858%, 12.159729%, 12.548828%)" fill-opacity="1" d="M 891.597656 303.867188 L 891.597656 300.730469 C 887.484375 302.839844 879.519531 300.886719 879.519531 305.921875 C 879.519531 308.957031 882.191406 309.316406 884.09375 309.316406 C 889.953125 309.316406 891.597656 305.921875 891.597656 303.867188 M 899.515625 308.851562 L 899.515625 312.65625 L 893.191406 312.65625 L 891.648438 309.675781 C 890.054688 311.988281 887.382812 313.171875 883.941406 313.171875 C 878.75 313.171875 875.253906 310.550781 875.253906 305.769531 C 875.253906 295.488281 891.597656 302.015625 891.597656 296.515625 L 891.597656 296.363281 C 891.597656 294.101562 890.054688 291.839844 886.304688 291.839844 C 882.964844 291.839844 881.0625 293.640625 880.035156 296.414062 L 876.4375 294.5625 C 878.492188 289.578125 882.550781 287.984375 886.40625 287.984375 C 892.0625 287.984375 895.867188 291.375 895.867188 296.570312 L 895.867188 308.851562 Z M 899.515625 308.851562 "/>
<path fill-rule="nonzero" fill="rgb(13.729858%, 12.159729%, 12.548828%)" fill-opacity="1" d="M 928.050781 306.539062 C 926.5625 310.804688 923.734375 313.171875 919.058594 313.171875 C 913.40625 313.171875 910.113281 309.726562 910.113281 303.867188 L 910.113281 292.355469 L 903.640625 292.355469 L 903.640625 288.5 L 910.113281 288.5 L 910.113281 279.863281 L 914.382812 279.863281 L 914.382812 288.5 L 926.871094 288.5 L 926.871094 292.355469 L 914.382812 292.355469 L 914.382812 303.199219 C 914.382812 305.203125 914.382812 309.316406 919.109375 309.316406 C 922.449219 309.316406 923.425781 307.3125 924.453125 304.742188 Z M 928.050781 306.539062 "/>
<path fill-rule="nonzero" fill="rgb(13.729858%, 12.159729%, 12.548828%)" fill-opacity="1" d="M 953.96875 300.320312 C 953.96875 295.179688 951.402344 291.839844 946.777344 291.839844 C 942.148438 291.839844 939.578125 295.179688 939.578125 300.320312 C 939.578125 305.972656 942.148438 309.316406 946.777344 309.316406 C 951.402344 309.316406 953.96875 305.972656 953.96875 300.320312 M 935.3125 300.320312 C 935.3125 294.410156 938.652344 287.984375 946.777344 287.984375 C 954.894531 287.984375 958.234375 294.410156 958.234375 300.320312 C 958.234375 306.746094 954.894531 313.171875 946.777344 313.171875 C 938.652344 313.171875 935.3125 306.746094 935.3125 300.320312 "/>
<path fill-rule="nonzero" fill="rgb(13.729858%, 12.159729%, 12.548828%)" fill-opacity="1" d="M 978.898438 282.640625 L 972.9375 282.640625 L 972.9375 276.679688 L 978.898438 276.679688 Z M 987.636719 308.800781 L 987.636719 312.65625 L 964.921875 312.65625 L 964.921875 308.800781 L 974.121094 308.800781 L 974.121094 292.355469 L 965.945312 292.355469 L 965.945312 288.5 L 978.386719 288.5 L 978.4375 308.800781 Z M 987.636719 308.800781 "/>
<path fill-rule="nonzero" fill="rgb(13.729858%, 12.159729%, 12.548828%)" fill-opacity="1" d="M 1019.300781 294.5625 L 1015.652344 296.261719 C 1014.417969 293.125 1013.339844 291.839844 1010.617188 291.839844 C 1004.910156 291.839844 1003.984375 297.546875 1003.984375 301.761719 L 1003.984375 308.800781 L 1008.972656 308.800781 L 1008.972656 312.65625 L 995.144531 312.65625 L 995.144531 308.800781 L 999.71875 308.800781 L 999.71875 292.355469 L 995.65625 292.355469 L 995.65625 288.5 L 1002.34375 288.5 L 1004.34375 291.683594 C 1005.785156 289.527344 1007.890625 287.984375 1011.027344 287.984375 C 1014.523438 287.984375 1017.554688 289.835938 1019.300781 294.5625 "/>
<path fill-rule="nonzero" fill="rgb(13.729858%, 12.159729%, 12.548828%)" fill-opacity="1" d="M 1030.507812 297.90625 L 1044.746094 297.957031 C 1044.4375 293.742188 1041.816406 291.839844 1037.960938 291.839844 C 1033.695312 291.839844 1031.230469 294.152344 1030.507812 297.90625 M 1049.21875 300.578125 L 1049.167969 301.707031 L 1030.300781 301.65625 C 1030.664062 306.386719 1033.335938 309.316406 1038.269531 309.316406 C 1041.714844 309.316406 1043.921875 307.875 1044.949219 304.742188 L 1048.550781 306.59375 C 1047.007812 310.242188 1043.976562 313.171875 1038.113281 313.171875 C 1029.324219 313.171875 1025.984375 306.644531 1025.984375 300.527344 C 1025.984375 294.460938 1029.222656 287.984375 1037.859375 287.984375 C 1046.285156 287.984375 1049.527344 294.101562 1049.21875 300.578125 "/>
<path fill-rule="nonzero" fill="rgb(13.729858%, 12.159729%, 12.548828%)" fill-opacity="1" d="M 743.070312 376.898438 L 743.21875 349.042969 L 736.539062 361.222656 L 733.761719 361.222656 L 727.082031 349.042969 L 727.238281 376.898438 L 722.867188 376.898438 L 722.917969 340.921875 L 726.414062 340.921875 L 735.152344 356.1875 L 743.890625 340.921875 L 747.382812 340.921875 L 747.4375 376.898438 Z M 743.070312 376.898438 "/>
<path fill-rule="nonzero" fill="rgb(13.729858%, 12.159729%, 12.548828%)" fill-opacity="1" d="M 767.832031 347.089844 L 763.769531 347.089844 L 767.269531 338.351562 L 771.84375 338.351562 Z M 758.785156 362.148438 L 773.023438 362.199219 C 772.714844 357.984375 770.09375 356.082031 766.238281 356.082031 C 761.972656 356.082031 759.503906 358.398438 758.785156 362.148438 M 777.496094 364.820312 L 777.445312 365.953125 L 758.582031 365.898438 C 758.941406 370.628906 761.613281 373.558594 766.550781 373.558594 C 769.992188 373.558594 772.199219 372.117188 773.230469 368.984375 L 776.828125 370.835938 C 775.285156 374.484375 772.253906 377.414062 766.394531 377.414062 C 757.605469 377.414062 754.261719 370.886719 754.261719 364.769531 C 754.261719 358.703125 757.503906 352.226562 766.136719 352.226562 C 774.566406 352.226562 777.804688 358.34375 777.496094 364.820312 "/>
<path fill-rule="nonzero" fill="rgb(13.729858%, 12.159729%, 12.548828%)" fill-opacity="1" d="M 807.929688 370.78125 C 806.441406 375.050781 803.613281 377.414062 798.9375 377.414062 C 793.285156 377.414062 789.992188 373.96875 789.992188 368.109375 L 789.992188 356.597656 L 783.515625 356.597656 L 783.515625 352.742188 L 789.992188 352.742188 L 789.992188 344.105469 L 794.257812 344.105469 L 794.257812 352.742188 L 806.75 352.742188 L 806.75 356.597656 L 794.257812 356.597656 L 794.257812 367.441406 C 794.257812 369.445312 794.257812 373.558594 798.988281 373.558594 C 802.328125 373.558594 803.304688 371.554688 804.332031 368.984375 Z M 807.929688 370.78125 "/>
<path fill-rule="nonzero" fill="rgb(13.729858%, 12.159729%, 12.548828%)" fill-opacity="1" d="M 836.90625 362.199219 L 836.855469 376.898438 L 832.589844 376.898438 L 832.640625 363.332031 L 832.640625 362.199219 C 832.640625 360.964844 832.640625 356.082031 827.089844 356.082031 C 820.816406 356.082031 820.40625 362.25 820.40625 365.953125 L 820.40625 376.898438 L 816.140625 376.898438 L 816.140625 340.921875 L 820.40625 340.921875 L 820.253906 356.648438 C 822 353.5625 824.773438 352.226562 827.859375 352.226562 C 833.308594 352.226562 836.90625 356.289062 836.90625 362.199219 "/>
<path fill-rule="nonzero" fill="rgb(13.729858%, 12.159729%, 12.548828%)" fill-opacity="1" d="M 864.132812 364.566406 C 864.132812 359.425781 861.5625 356.082031 856.933594 356.082031 C 852.308594 356.082031 849.738281 359.425781 849.738281 364.566406 C 849.738281 370.21875 852.308594 373.558594 856.933594 373.558594 C 861.5625 373.558594 864.132812 370.21875 864.132812 364.566406 M 845.472656 364.566406 C 845.472656 358.652344 848.8125 352.226562 856.933594 352.226562 C 865.054688 352.226562 868.394531 358.652344 868.394531 364.566406 C 868.394531 370.988281 865.054688 377.414062 856.933594 377.414062 C 848.8125 377.414062 845.472656 370.988281 845.472656 364.566406 "/>
<path fill-rule="nonzero" fill="rgb(13.729858%, 12.159729%, 12.548828%)" fill-opacity="1" d="M 895.253906 364.566406 C 895.253906 359.425781 891.964844 356.082031 887.441406 356.082031 C 882.917969 356.082031 880.296875 359.476562 880.296875 364.820312 C 880.296875 370.167969 882.917969 373.558594 887.441406 373.558594 C 891.964844 373.558594 895.253906 370.21875 895.253906 364.566406 M 898.953125 340.921875 L 898.953125 376.898438 L 896.332031 376.898438 L 894.585938 374.074219 C 892.992188 376.078125 890.578125 377.414062 887.078125 377.414062 C 879.164062 377.414062 876.03125 370.578125 876.03125 364.820312 C 876.03125 359.117188 879.164062 352.226562 887.078125 352.226562 C 890.78125 352.226562 893.25 353.71875 894.84375 355.828125 L 894.6875 340.921875 Z M 898.953125 340.921875 "/>
<path fill-rule="nonzero" fill="rgb(13.729858%, 12.159729%, 12.548828%)" fill-opacity="1" d="M 911.597656 362.148438 L 925.835938 362.199219 C 925.527344 357.984375 922.90625 356.082031 919.054688 356.082031 C 914.789062 356.082031 912.320312 358.394531 911.597656 362.148438 M 930.308594 364.820312 L 930.257812 365.953125 L 911.394531 365.902344 C 911.753906 370.628906 914.425781 373.558594 919.359375 373.558594 C 922.804688 373.558594 925.015625 372.121094 926.042969 368.984375 L 929.640625 370.835938 C 928.097656 374.484375 925.066406 377.414062 919.207031 377.414062 C 910.414062 377.414062 907.078125 370.886719 907.078125 364.769531 C 907.078125 358.703125 910.316406 352.226562 918.949219 352.226562 C 927.378906 352.226562 930.617188 358.34375 930.308594 364.820312 "/>
<path fill-rule="nonzero" fill="rgb(13.729858%, 12.159729%, 12.548828%)" fill-opacity="1" d="M 941.550781 368.984375 C 942.835938 371.8125 944.226562 373.558594 949.058594 373.558594 C 951.78125 373.558594 954.144531 372.992188 954.144531 370.113281 C 954.144531 367.492188 952.140625 367.289062 948.488281 366.570312 C 943.96875 365.695312 939.394531 364.511719 939.394531 359.425781 C 939.394531 354.644531 943.402344 352.226562 948.335938 352.226562 C 953.527344 352.226562 956.917969 354.847656 958.359375 358.808594 L 954.761719 360.660156 C 953.734375 358.191406 952.398438 356.082031 948.234375 356.082031 C 945.5625 356.082031 943.660156 356.957031 943.660156 359.425781 C 943.660156 361.277344 944.6875 361.839844 948.542969 362.613281 C 953.015625 363.484375 958.410156 364.359375 958.410156 370.113281 C 958.410156 375.304688 954.144531 377.414062 948.488281 377.414062 C 943.144531 377.414062 939.445312 374.792969 937.953125 370.835938 Z M 941.550781 368.984375 "/>
<path fill-rule="nonzero" fill="rgb(13.729858%, 12.159729%, 12.548828%)" fill-opacity="1" d="M 728.265625 409.121094 L 728.265625 420.789062 L 743.785156 420.789062 L 743.785156 424.746094 L 728.265625 424.746094 L 728.265625 441.144531 L 723.894531 441.144531 L 723.894531 405.164062 L 746.359375 405.164062 L 746.359375 409.121094 Z M 728.265625 409.121094 "/>
<path fill-rule="nonzero" fill="rgb(13.729858%, 12.159729%, 12.548828%)" fill-opacity="1" d="M 770.183594 428.808594 C 770.183594 423.667969 767.613281 420.328125 762.988281 420.328125 C 758.363281 420.328125 755.789062 423.667969 755.789062 428.808594 C 755.789062 434.460938 758.363281 437.800781 762.988281 437.800781 C 767.613281 437.800781 770.183594 434.460938 770.183594 428.808594 M 751.527344 428.808594 C 751.527344 422.898438 754.863281 416.472656 762.988281 416.472656 C 771.109375 416.472656 774.449219 422.898438 774.449219 428.808594 C 774.449219 435.234375 771.109375 441.65625 762.988281 441.65625 C 754.863281 441.65625 751.527344 435.234375 751.527344 428.808594 "/>
<path fill-rule="nonzero" fill="rgb(13.729858%, 12.159729%, 12.548828%)" fill-opacity="1" d="M 805.0625 423.050781 L 801.414062 424.746094 C 800.179688 421.613281 799.101562 420.328125 796.378906 420.328125 C 790.671875 420.328125 789.746094 426.03125 789.746094 430.246094 L 789.746094 437.289062 L 794.734375 437.289062 L 794.734375 441.144531 L 780.90625 441.144531 L 780.90625 437.289062 L 785.480469 437.289062 L 785.480469 420.839844 L 781.417969 420.839844 L 781.417969 416.988281 L 788.101562 416.988281 L 790.105469 420.171875 C 791.542969 418.015625 793.652344 416.472656 796.789062 416.472656 C 800.285156 416.472656 803.316406 418.320312 805.0625 423.050781 "/>
<path fill-rule="nonzero" fill="rgb(13.729858%, 12.159729%, 12.548828%)" fill-opacity="1" d="M 838.320312 427.316406 L 838.320312 441.296875 L 834.054688 441.296875 L 834.054688 427.316406 C 834.054688 424.542969 834.054688 420.328125 831.019531 420.328125 C 828.65625 420.328125 826.859375 422.949219 826.859375 430.195312 L 826.859375 441.144531 L 822.695312 441.144531 L 822.589844 427.164062 C 822.589844 423.71875 822.335938 420.171875 819.558594 420.171875 C 817.195312 420.171875 815.394531 422.792969 815.394531 430.042969 L 815.394531 441.144531 L 811.285156 441.144531 L 811.285156 416.988281 L 813.90625 416.988281 L 815.292969 419.195312 C 816.269531 417.601562 817.863281 416.472656 820.226562 416.472656 C 823.257812 416.472656 824.90625 418.324219 825.828125 420.582031 C 826.910156 418.269531 828.757812 416.472656 831.792969 416.472656 C 838.523438 416.472656 838.320312 424.179688 838.320312 427.316406 "/>
<path fill-rule="nonzero" fill="rgb(13.729858%, 12.159729%, 12.548828%)" fill-opacity="1" d="M 849.808594 426.390625 L 864.046875 426.441406 C 863.738281 422.230469 861.117188 420.328125 857.261719 420.328125 C 852.996094 420.328125 850.53125 422.640625 849.808594 426.390625 M 868.519531 429.066406 L 868.46875 430.195312 L 849.601562 430.144531 C 849.964844 434.871094 852.636719 437.800781 857.570312 437.800781 C 861.015625 437.800781 863.226562 436.363281 864.25 433.226562 L 867.851562 435.078125 C 866.308594 438.726562 863.277344 441.65625 857.414062 441.65625 C 848.625 441.65625 845.285156 435.128906 845.285156 429.011719 C 845.285156 422.949219 848.523438 416.472656 857.160156 416.472656 C 865.585938 416.472656 868.828125 422.589844 868.519531 429.066406 "/>
<path fill-rule="nonzero" fill="rgb(13.729858%, 12.159729%, 12.548828%)" fill-opacity="1" d="M 897.359375 437.289062 L 897.359375 441.144531 L 875.671875 441.144531 L 875.671875 437.289062 L 884.40625 437.289062 L 884.355469 409.019531 L 877.210938 409.019531 L 877.210938 405.164062 L 888.625 405.164062 L 888.625 409.019531 L 888.570312 409.019531 L 888.625 437.289062 Z M 897.359375 437.289062 "/>
<path fill-rule="nonzero" fill="rgb(13.729858%, 12.159729%, 12.548828%)" fill-opacity="1" d="M 927.285156 437.289062 L 927.285156 441.144531 L 905.597656 441.144531 L 905.597656 437.289062 L 914.332031 437.289062 L 914.28125 409.019531 L 907.136719 409.019531 L 907.136719 405.164062 L 918.550781 405.164062 L 918.550781 409.019531 L 918.496094 409.019531 L 918.550781 437.289062 Z M 927.285156 437.289062 "/>
<path fill-rule="nonzero" fill="rgb(13.729858%, 12.159729%, 12.548828%)" fill-opacity="1" d="M 938.648438 426.390625 L 952.886719 426.441406 C 952.578125 422.230469 949.957031 420.328125 946.101562 420.328125 C 941.835938 420.328125 939.367188 422.640625 938.648438 426.390625 M 957.355469 429.066406 L 957.304688 430.195312 L 938.441406 430.144531 C 938.800781 434.871094 941.476562 437.800781 946.410156 437.800781 C 949.851562 437.800781 952.0625 436.363281 953.089844 433.226562 L 956.6875 435.078125 C 955.144531 438.726562 952.113281 441.65625 946.253906 441.65625 C 937.464844 441.65625 934.125 435.128906 934.125 429.011719 C 934.125 422.949219 937.363281 416.472656 945.996094 416.472656 C 954.425781 416.472656 957.667969 422.589844 957.355469 429.066406 "/>
<path fill-rule="nonzero" fill="rgb(13.729858%, 12.159729%, 12.548828%)" fill-opacity="1" d="M 968.597656 433.226562 C 969.886719 436.054688 971.273438 437.800781 976.105469 437.800781 C 978.828125 437.800781 981.195312 437.238281 981.195312 434.359375 C 981.195312 431.738281 979.191406 431.53125 975.539062 430.8125 C 971.015625 429.9375 966.441406 428.753906 966.441406 423.667969 C 966.441406 418.886719 970.449219 416.472656 975.386719 416.472656 C 980.578125 416.472656 983.96875 419.09375 985.40625 423.050781 L 981.808594 424.902344 C 980.78125 422.433594 979.445312 420.328125 975.285156 420.328125 C 972.609375 420.328125 970.707031 421.199219 970.707031 423.667969 C 970.707031 425.519531 971.738281 426.082031 975.589844 426.855469 C 980.0625 427.726562 985.457031 428.601562 985.457031 434.359375 C 985.457031 439.550781 981.195312 441.65625 975.539062 441.65625 C 970.195312 441.65625 966.492188 439.035156 965 435.078125 Z M 968.597656 433.226562 "/>
<path fill-rule="nonzero" fill="rgb(13.729858%, 12.159729%, 12.548828%)" fill-opacity="1" d="M 650.949219 361.375 L 513.894531 361.375 L 513.894531 358.164062 L 650.949219 358.164062 Z M 650.949219 361.375 "/>
<path fill-rule="nonzero" fill="rgb(13.729858%, 12.159729%, 12.548828%)" fill-opacity="1" d="M 1122.066406 222.71875 L 650.949219 222.71875 L 650.949219 496.820312 L 1122.066406 496.820312 Z M 1118.855469 493.609375 L 654.160156 493.609375 L 654.160156 225.929688 L 1118.855469 225.929688 Z M 1118.855469 493.609375 "/>
<path fill-rule="nonzero" fill="rgb(13.729858%, 12.159729%, 12.548828%)" fill-opacity="1" d="M 265.488281 325.507812 L 244.074219 325.507812 L 244.074219 394.03125 L 308.316406 394.03125 L 308.316406 373.6875 L 265.488281 373.6875 Z M 265.488281 325.507812 "/>
<path fill-rule="nonzero" fill="rgb(13.729858%, 12.159729%, 12.548828%)" fill-opacity="1" d="M 436.804688 325.507812 L 415.390625 325.507812 L 415.390625 394.03125 L 436.804688 394.03125 L 436.804688 345.847656 L 483.914062 345.847656 L 483.914062 325.507812 Z M 436.804688 325.507812 "/>
<path fill-rule="nonzero" fill="rgb(13.729858%, 12.159729%, 12.548828%)" fill-opacity="1" d="M 459.105469 355.484375 C 452.007812 355.484375 446.257812 361.238281 446.257812 368.335938 C 446.257812 375.429688 452.007812 381.183594 459.105469 381.183594 C 466.203125 381.183594 471.957031 375.429688 471.957031 368.335938 C 471.957031 361.238281 466.203125 355.484375 459.105469 355.484375 "/>
<path fill-rule="nonzero" fill="rgb(13.729858%, 12.159729%, 12.548828%)" fill-opacity="1" d="M 381.125 329.511719 L 359.863281 366.34375 L 338.296875 328.996094 L 336.285156 325.507812 L 316.882812 325.507812 L 316.882812 394.03125 L 338.296875 394.03125 L 338.296875 377.15625 C 338.296875 370.492188 336.113281 359.769531 336.113281 359.769531 L 348.789062 385.53125 L 351.1875 389.6875 L 368.40625 389.6875 L 370.867188 385.402344 L 383.273438 359.96875 C 383.273438 359.96875 381.125 370.492188 381.125 376.890625 L 381.125 394.03125 L 402.539062 394.03125 L 402.539062 325.507812 L 383.4375 325.507812 Z M 381.125 329.511719 "/>
<path fill-rule="nonzero" fill="rgb(13.729858%, 12.159729%, 12.548828%)" fill-opacity="1" d="M 359.710938 510.828125 C 276.417969 510.828125 208.652344 443.0625 208.652344 359.769531 C 208.652344 276.476562 276.417969 208.710938 359.710938 208.710938 C 443.003906 208.710938 510.769531 276.476562 510.769531 359.769531 C 510.769531 443.0625 443.003906 510.828125 359.710938 510.828125 M 359.710938 205.585938 C 274.558594 205.585938 205.527344 274.617188 205.527344 359.769531 C 205.527344 444.921875 274.558594 513.953125 359.710938 513.953125 C 444.867188 513.953125 513.894531 444.921875 513.894531 359.769531 C 513.894531 274.617188 444.867188 205.585938 359.710938 205.585938 "/>
</svg>
